HIERARCHY
ROOT Hips
{
	OFFSET -3.958830 18.904000 13.208200
	CHANNELS 6 Xposition Yposition Zposition Zrotation Yrotation Xrotation 
	JOINT LHipJoint
	{
		OFFSET 0.000000 0.000000 0.000000
		CHANNELS 3 Zrotation Yrotation Xrotation
		JOINT LeftUpLeg
		{
			OFFSET 1.800000 -1.400000 0.085000
			CHANNELS 3 Zrotation Yrotation Xrotation
			JOINT LeftLeg
			{
				OFFSET 2.215000 -6.000000 0.000000
				CHANNELS 3 Zrotation Yrotation Xrotation
				JOINT LeftFoot
				{
					OFFSET 2.500000 -6.900000 0.000000
					CHANNELS 3 Zrotation Yrotation Xrotation
					JOINT LeftToeBase
					{
						OFFSET 0.200000 -0.500000 1.950000
						CHANNELS 3 Zrotation Yrotation Xrotation
						End Site
						{
							OFFSET 0.000000 0.000000 0.000000
						}
					}
				}
			}
		}
	}
	JOINT RHipJoint
	{
		OFFSET 0.000000 0.000000 0.000000
		CHANNELS 3 Zrotation Yrotation Xrotation
		JOINT RightUpLeg
		{
			OFFSET -1.800000 -1.400000 0.085000
			CHANNELS 3 Zrotation Yrotation Xrotation
			JOINT RightLeg
			{
				OFFSET -2.215000 -6.000000 0.000000
				CHANNELS 3 Zrotation Yrotation Xrotation
				JOINT RightFoot
				{
					OFFSET -2.500000 -6.900000 0.000000
					CHANNELS 3 Zrotation Yrotation Xrotation
					JOINT RightToeBase
					{
						OFFSET -0.200000 -0.500000 1.950000
						CHANNELS 3 Zrotation Yrotation Xrotation
						End Site
						{
							OFFSET 0.000000 0.000000 0.000000
						}
					}
				}
			}
		}
	}
	JOINT LowerBack
	{
		OFFSET 0.000000 0.000000 0.000000
		CHANNELS 3 Zrotation Yrotation Xrotation
		JOINT Spine
		{
			OFFSET -0.087000 1.940000 -0.288900
			CHANNELS 3 Zrotation Yrotation Xrotation
			JOINT Spine1
			{
				OFFSET 0.000000 1.950000 0.060000
				CHANNELS 3 Zrotation Yrotation Xrotation
				JOINT Neck
				{
					OFFSET 0.000000 0.000000 0.000000
					CHANNELS 3 Zrotation Yrotation Xrotation
					JOINT Neck1
					{
						OFFSET 0.000000 1.600000 0.340000
						CHANNELS 3 Zrotation Yrotation Xrotation
						JOINT Head
						{
							OFFSET 0.000000 1.667000 -0.240000
							CHANNELS 3 Zrotation Yrotation Xrotation
							End Site
							{
								OFFSET 0.000000 0.000000 0.000000
							}
						}
					}
				}
				JOINT LeftShoulder
				{
					OFFSET 0.000000 0.000000 0.000000
					CHANNELS 3 Zrotation Yrotation Xrotation
					JOINT LeftArm
					{
						OFFSET 2.700000 1.550000 -0.730000
						CHANNELS 3 Zrotation Yrotation Xrotation
						JOINT LeftForeArm
						{
							OFFSET 5.450000 0.000000 0.000000
							CHANNELS 3 Zrotation Yrotation Xrotation
							JOINT LeftHand
							{
								OFFSET 3.450000 0.000000 0.000000
								CHANNELS 3 Zrotation Yrotation Xrotation
								JOINT LeftHandIndex1
								{
									OFFSET 0.750000 0.000000 0.000000
									CHANNELS 3 Zrotation Yrotation Xrotation
									End Site
									{
										OFFSET 0.000000 0.000000 0.000000
									}
								}
							}
						}
					}
				}
				JOINT RightShoulder
				{
					OFFSET 0.000000 0.000000 0.000000
					CHANNELS 3 Zrotation Yrotation Xrotation
					JOINT RightArm
					{
						OFFSET -2.700000 1.550000 -0.730000
						CHANNELS 3 Zrotation Yrotation Xrotation
						JOINT RightForeArm
						{
							OFFSET -5.450000 0.000000 0.000000
							CHANNELS 3 Zrotation Yrotation Xrotation
							JOINT RightHand
							{
								OFFSET -3.450000 0.000000 0.000000
								CHANNELS 3 Zrotation Yrotation Xrotation
								JOINT RightHandIndex1
								{
									OFFSET -0.750000 0.000000 0.000000
									CHANNELS 3 Zrotation Yrotation Xrotation
									End Site
									{
										OFFSET 0.000000 0.000000 0.000000
									}
								}
							}
						}
					}
				}
			}
		}
	}
}
MOTION
Frames: 8
Frame Time: 0.016667
0.736700 16.951950 -1.153200 -3.487930 -4.738853 0.662315 -15.165716 14.365763 3.437484 6.422284 -3.402024 -18.877163 -5.775176 8.614446 32.755251 -0.302180 6.463087 2.622016 0.436060 -0.187720 0.315590 18.001885 -10.716736 3.099606 3.654746 0.698157 -7.430696 1.154989 -4.593633 16.625653 -0.640849 -3.245864 3.575401 -0.229090 0.348050 0.366520 -3.050272 -3.680048 -8.326260 11.319815 -1.884565 21.986953 -5.010943 2.538189 -14.467866 4.764932 -5.599790 -10.671662 -14.727911 5.818407 43.864280 -1.831770 1.909890 -21.033500 -23.141342 2.221679 -0.026176 -32.298139 8.952702 -5.694155 0.618946 -23.198762 -1.393630 -3.527947 2.482910 1.236770 -0.031990 0.170850 0.376860 14.273224 4.877884 7.184203 37.858625 -8.282030 -9.034689 -13.500144 19.095169 -1.019611 1.926151 -1.019067 -0.344050 0.385990 -0.023880 -0.323330 
0.738720 16.951270 -1.163220 -3.420695 -5.017877 0.566290 -15.161593 14.297875 3.465058 8.227978 -3.422878 -19.580591 -6.456265 9.223002 33.755757 -0.249081 6.773085 2.493340 0.444380 -0.170360 0.311280 18.017508 -10.696951 3.067915 3.424603 0.638967 -7.240509 1.309771 -4.631331 16.285460 -0.644637 -3.260061 3.572161 -0.225060 0.346800 0.375420 -3.074211 -3.616701 -8.335413 11.383709 -1.988134 22.048631 -5.269278 2.457901 -13.778656 4.815397 -5.572032 -10.615473 -14.525119 5.865422 43.401198 -1.844040 2.067870 -21.023700 -23.590322 1.716257 0.022681 -33.014442 8.159859 -6.035815 -0.756002 -26.239073 -1.196893 -3.505219 2.535215 1.221800 -0.025920 0.170240 0.379930 14.549079 5.263406 7.225354 38.628732 -7.904119 -9.334415 -14.122001 20.503705 -1.290907 1.901900 -1.045592 -0.327820 0.372000 -0.028580 -0.316220 
0.738640 16.953020 -1.169890 -3.290658 -5.331849 0.494218 -15.164493 14.253935 3.469010 10.008702 -3.306266 -19.977537 -6.848269 9.632086 34.205475 -0.226095 6.981518 2.403851 0.455370 -0.156050 0.309450 18.024601 -10.681070 3.042045 3.166936 0.572476 -7.006377 1.466720 -4.659376 15.840520 -0.649001 -3.275423 3.568074 -0.217300 0.348510 0.389450 -3.074660 -3.571582 -8.337979 11.219117 -1.967526 21.961922 -5.346566 2.421874 -13.017174 4.871270 -5.529082 -10.530687 -14.302238 5.851777 42.875471 -2.011270 2.206130 -21.070980 -23.889590 1.258176 0.022078 -33.529277 7.071921 -6.236224 -2.107166 -29.442280 -0.930390 -3.489830 2.586598 1.212170 -0.016590 0.169770 0.386560 14.696799 5.593413 7.259263 39.077655 -7.438085 -9.514904 -14.971101 21.646216 -1.567945 1.875462 -1.075005 -0.316970 0.360170 -0.032720 -0.312530 
0.741330 16.953730 -1.175880 -3.177086 -5.667869 0.432162 -15.160563 14.213311 3.446640 11.829280 -3.068103 -20.063217 -7.093306 9.890493 34.128803 -0.223755 7.089887 2.344761 0.472520 -0.130360 0.309600 18.038419 -10.677787 3.022085 2.845331 0.489813 -6.714741 1.739104 -4.703271 15.260111 -0.657534 -3.297707 3.555544 -0.200960 0.343460 0.405120 -3.093911 -3.496716 -8.325998 11.134490 -1.952713 21.742858 -5.546884 2.338540 -12.050868 4.916140 -5.404830 -10.394359 -13.867162 5.791240 42.215817 -2.150150 2.405880 -21.386780 -24.051904 0.739967 0.021189 -33.736981 5.699751 -6.298497 -3.261284 -32.708602 -0.617224 -3.473852 2.646724 1.201390 -0.010220 0.174240 0.394290 14.693834 5.864387 7.232380 39.363032 -6.706024 -9.571343 -16.109977 22.397677 -1.877720 1.856118 -1.111101 -0.303900 0.344120 -0.040610 -0.308140 
0.743770 16.955580 -1.177250 -3.090444 -5.889578 0.360306 -15.155397 14.205023 3.392779 13.659053 -2.716521 -19.787350 -7.081663 9.910807 33.432913 -0.229658 7.048499 2.327534 0.515200 -0.072090 0.317870 18.050202 -10.674550 3.014245 2.547400 0.399617 -6.372198 2.051340 -4.737382 14.605997 -0.676419 -3.325694 3.533228 -0.174380 0.316190 0.433000 -3.114020 -3.456679 -8.305062 11.082918 -2.024852 21.385329 -5.696570 2.144102 -11.009672 4.936901 -5.373917 -10.361558 -13.711570 5.855206 41.683807 -2.078350 2.570340 -21.706530 -24.124349 0.072491 0.121207 -33.785209 4.290256 -6.281890 -3.894643 -35.804296 -0.376017 -3.441912 2.736512 1.183600 -0.013230 0.192210 0.407700 14.685447 6.317533 7.270446 39.307473 -5.963816 -9.485253 -17.555746 22.661693 -2.196559 1.851592 -1.173505 -0.265110 0.300160 -0.066980 -0.297030 
0.744470 16.956850 -1.173080 -3.046329 -6.049437 0.322663 -15.147988 14.215283 3.315897 15.533496 -2.261731 -19.152959 -6.970439 9.769838 32.046186 -0.248672 6.902641 2.353165 0.560660 -0.011910 0.327100 18.062510 -10.673643 3.012512 2.303136 0.325300 -6.059886 2.354413 -4.772620 14.066705 -0.696535 -3.363222 3.509535 -0.149390 0.296020 0.462600 -3.138700 -3.430009 -8.276390 11.102686 -2.098763 20.815351 -5.812656 1.910139 -9.924666 4.916918 -5.369871 -10.359354 -13.684866 5.936127 41.276069 -1.947510 2.640720 -21.650790 -24.006681 -0.572805 0.228936 -33.536819 2.821612 -6.121329 -4.272523 -38.796632 -0.160884 -3.416573 2.823930 1.160830 -0.011560 0.206170 0.423470 14.580227 6.722010 7.341779 39.018551 -5.433712 -9.375142 -19.099602 22.850586 -2.523270 1.846818 -1.241060 -0.222770 0.257550 -0.093930 -0.282440 
0.749240 16.956280 -1.164810 -3.037167 -6.104771 0.326312 -15.135518 14.226064 3.220961 17.304915 -1.787360 -18.258447 -6.709990 9.438003 30.027253 -0.296123 6.669688 2.418792 0.591160 0.030050 0.333030 18.080453 -10.673111 3.017386 1.971862 0.227150 -5.669037 2.869045 -4.840147 13.293929 -0.711177 -3.405449 3.489159 -0.125380 0.288070 0.480340 -3.181506 -3.399764 -8.238058 11.296078 -2.209048 20.040468 -6.023385 1.610751 -8.670791 4.884795 -5.317951 -10.372032 -13.573125 5.940601 40.840822 -1.943100 2.684900 -21.520490 -23.793425 -1.357041 0.383840 -33.003651 1.372067 -5.912001 -4.182197 -41.682286 -0.092491 -3.404707 2.882318 1.141780 -0.003950 0.210120 0.433650 14.379136 7.164372 7.427667 38.530814 -4.861332 -9.143929 -20.683954 22.311305 -2.762062 1.845535 -1.294867 -0.199980 0.235450 -0.108770 -0.274220 
0.757650 16.954490 -1.155750 -3.098587 -5.941017 0.343837 -15.117692 14.212473 3.136168 19.073007 -1.366063 -17.271275 -6.433702 9.034824 27.647998 -0.347108 6.415690 2.499918 0.616430 0.067700 0.340740 18.108945 -10.664349 3.018798 1.684768 0.130087 -5.297011 3.411674 -4.913125 12.570322 -0.723205 -3.452299 3.471165 -0.099020 0.285440 0.487440 -3.253522 -3.354230 -8.196152 11.716051 -2.461326 19.241941 -6.455196 1.185621 -7.401760 4.831368 -5.200941 -10.356143 -13.284601 5.885670 40.228674 -1.920110 2.751300 -21.401970 -23.587624 -2.259235 0.532827 -31.843479 -0.018409 -5.653265 -3.710301 -44.408673 -0.135368 -3.399280 2.924211 1.121000 0.006630 0.207810 0.440990 14.190754 7.582109 7.513436 37.721652 -4.326631 -8.768939 -21.849058 21.207633 -2.835022 1.851184 -1.340538 -0.187070 0.225710 -0.121770 -0.269300 
